<?xml version="1.0" encoding="utf-8" ?><svg xmlns="http://www.w3.org/2000/svg" xmlns:xlink="http://www.w3.org/1999/xlink" width="3328" height="1280" viewBox="0 0 3328 1280"><path fill="#010101" d="M3033.91 797.982C3027.56 837.542 3006.12 877.136 2980.61 907.857C2920.86 979.786 2812.38 988.743 2741.23 927.601C2679.03 874.148 2661.56 795.018 2654.56 716.645C2652.28 691.126 2654.8 664.016 2657.49 638.53C2664.32 571.523 2683.5 512.413 2729.34 462.194C2788.98 396.857 2894.06 389.622 2961.4 447.533C3008.14 487.727 3029.99 548.163 3041.86 607.122C3044.82 621.809 3045.4 639.7 3046.44 654.716C3048.17 673.241 3047.89 688.313 3047.51 706.799C3044.99 745.665 3044.75 757.653 3034.66 795.279L3033.91 797.982ZM2857.36 934.095C2909.65 930.945 2926.57 879.45 2939.04 837.641C2955.63 781.982 2955.78 725.518 2954.61 668.017C2954.72 609.803 2942.75 501.545 2896.92 461.423C2882.6 448.876 2864.14 442.083 2845.11 442.359C2783.16 454.089 2766.46 517.57 2756.32 571.226C2741.42 650.096 2741.66 731.08 2757.02 809.861C2764.34 848.207 2781.14 899.618 2814.88 923.421C2827.96 932.65 2841.8 934.424 2857.36 934.095Z"/><path fill="#0E120E" d="M2742.56 737.583L2743.89 738.851C2744.6 744.513 2745.12 753.858 2742.54 758.994C2740.45 753.361 2741.98 743.8 2742.56 737.583Z"/><path fill="#0E120E" d="M2664.18 745.658L2665.29 746.63C2666.57 750.03 2666.02 753.815 2665.85 757.553L2664.36 756.413C2663.06 752.988 2663.82 749.431 2664.18 745.658Z"/><path fill="#010101" d="M273.515 597.69C274.757 573.182 274.242 548.976 274.206 524.438L274.3 431.902C274.225 381.742 276.235 330.567 272.989 280.556C272.353 270.743 271.336 258.347 267.767 249.235C258.506 225.584 234.141 227.272 214.895 218.187C210.764 216.236 207.016 213.291 205.593 208.757C203.968 203.574 205.564 197.237 208.05 192.559C208.77 191.206 211.111 190.452 212.565 190.046C227.757 185.808 302.148 188.318 322.886 188.31C385.664 188.288 448.856 186.634 511.584 188.342C525.957 188.736 540.303 189.807 554.575 191.55C586.938 195.811 614.343 202.613 642.829 218.82C683.995 242.077 714.21 280.765 726.799 326.34C741.663 380.815 737.372 456.401 707.406 504.956C669.212 566.842 621.454 586.411 555.739 604.107C589.544 619.318 620.892 638.735 641.474 670.608C677.936 727.076 699.308 792.021 730.323 851.385C747.232 885.411 768.385 915.037 806.883 925.727C818.583 928.975 814.739 952.609 811.916 952.767C776.061 954.774 713.204 955.253 679.77 952.504C671.521 951.826 646.642 888.131 642.642 878.414C609.95 810.206 582.465 740.762 547.385 673.974C541.605 662.969 530.353 646.417 520.86 638.879C490.141 614.485 449.034 616.054 412.065 617.599C406.897 617.797 396.511 618.414 392.378 616.031C388.274 611.214 390.804 600.806 390.229 594.767C389.024 582.112 409.279 585.285 418.355 585.67C477.257 588.171 539.462 588.417 587.042 547.935C625.028 515.616 638.034 465.086 641.814 417.155C645.075 367.064 634.563 305.126 601.022 265.596C577.294 238.17 544.332 224.147 508.629 221.378C488.601 219.049 466.442 219.707 446.095 219.709L359.51 219.776L359.508 417.528C359.168 443.669 359.052 469.812 359.162 495.955C359.153 508.724 359.671 528.304 358.237 540.483C332.383 559.531 301.142 577.919 273.515 597.69Z"/><path fill="#010101" d="M972.702 408.399C997.664 404.807 1029.53 414.059 1051.83 426.164C1092.35 448.171 1114.31 491.147 1126.29 535.149C1133.34 571.536 1145.46 625.169 1133.79 660.167C1130.04 671.406 1078.43 668.188 1065.64 668.183L949.479 668.095C934.595 668.082 915.669 667.907 901.144 669.729C878.042 672.625 887.874 729.63 889.596 747.07C894.532 797.081 915.059 862.925 960.362 891.138C979.829 903.497 1003.47 907.442 1025.9 902.074C1079.18 889.1 1102.75 827.758 1120.52 784.24C1121.97 780.678 1125.82 780.319 1129.52 779.444C1143.44 782.542 1144.98 789.082 1142.59 802.245C1129.7 873.422 1076.31 964.13 995.816 967.982C818.104 976.487 775.829 733.921 806.542 601.023C827.607 508.138 868.098 416.988 972.702 408.399ZM1045.53 611.346C1053.82 583.043 1050.52 560.991 1045.89 532.489C1044.24 510.735 1028.46 465.656 1011.65 453.448C954.436 411.922 911.242 480.615 900.932 530.129C894.189 559.62 887.432 590.535 888.381 620.901C888.706 631.27 894.878 634.922 904.756 634.872C943.281 634.674 983.136 636.891 1021.41 633.113C1033.94 631.875 1040.92 622.418 1045.53 611.346ZM887.693 773.294C888.018 768.961 888.436 766.137 887.565 761.859L886.301 760.653C886.031 764.5 885.288 768.899 886.578 772.354L887.693 773.294Z"/><path fill="#FDFDFC" fill-opacity="0.011764706" d="M1045.53 611.346C1043.76 606.104 1045.2 584.473 1045.45 577.745C1045.86 566.97 1042.41 541.151 1045.89 532.489C1050.52 560.991 1053.82 583.043 1045.53 611.346Z"/><path fill="#0E120E" d="M807.866 745.417C811.398 750.852 809.342 761.502 808.428 768.109L807.797 768.039C806.585 765.345 807.755 749.992 807.866 745.417Z"/><path fill="#0E120E" fill-opacity="0.98823529" d="M886.301 760.653L887.565 761.859C888.436 766.137 888.018 768.961 887.693 773.294L886.578 772.354C885.288 768.899 886.031 764.5 886.301 760.653Z"/><path fill="#010101" d="M1774.77 408.37C1897.78 403.465 1932.07 504.286 1942.69 607.359C1949.96 677.992 1933.63 668.554 1874.3 668.425L1766.97 668.365C1755.09 668.371 1700 665.272 1694.48 676.091C1687.04 690.676 1692.15 726.659 1694.68 743.517C1702.41 794.948 1716.3 855.461 1760.78 887.918C1779.37 901.604 1802.73 907.151 1825.49 903.288C1866.55 896.5 1894.91 857.032 1909.63 820.952C1914.31 809.482 1920.12 790.035 1927.39 780.697C1932.38 779.419 1938.27 779.319 1942.48 782.609C1948.78 792.02 1944.14 808.455 1941.85 818.813C1926.94 886.333 1879.19 960.014 1804.72 967.906C1764.73 971.951 1724.76 959.995 1693.56 934.654C1636.18 887.845 1615.82 813.823 1607.36 743.052C1593.16 624.346 1625.82 423.336 1774.77 408.37ZM1768.5 635.016C1821.25 635.129 1855.96 645.149 1852.9 576.39C1851.07 535.4 1848.68 489.867 1819.78 456.98C1810.41 446.693 1795.37 440.945 1781.57 441.231C1780.55 441.248 1779.53 441.286 1778.51 441.347C1717.66 450.59 1702.57 532.243 1695.83 582.092C1689.05 632.281 1688.38 637.846 1741.72 635.128C1749.22 634.824 1760.64 635.052 1768.5 635.016Z"/><path fill="#0E120E" d="M1688.36 719.694C1689.84 724.19 1689.45 738.806 1686.27 742.434C1686.11 736.608 1684.99 723.661 1688.36 719.694Z"/><path fill="#010101" d="M2461.74 408.597L2462.31 408.545C2486.87 406.321 2549.7 416.352 2569.71 431.861C2580.42 440.159 2579.18 547.992 2581.88 566.619C2583.98 581.08 2561.92 589.267 2555.49 573.979C2540.2 537.649 2538.42 494.698 2510.46 463.732C2486.97 436.158 2449.02 433.137 2421.86 457.585C2396.01 480.847 2392.73 543.859 2410.3 572.21C2446.91 629.579 2514.95 653.614 2561.32 702.201C2630.95 775.17 2618.08 916.366 2518.05 955.714C2488.27 967.429 2470.21 968.884 2438.24 967.676C2413.49 965.641 2349.46 953.747 2330.28 940.181C2326.14 928.691 2327.35 875.48 2325.33 858.493C2324.44 839.637 2321.83 820.519 2322.17 801.669C2322.38 789.897 2341.84 785.526 2347.02 794.704C2351.72 803.051 2353.17 815.848 2355.95 825.207C2366.24 859.898 2378.64 895.483 2406.36 920.319C2434.04 945.288 2483.56 945.502 2508.28 915.885C2523.26 897.93 2528.98 875.14 2528.34 852.186C2526.04 768.956 2444.05 738.209 2390.46 690.385C2352.76 657.358 2331.91 624.436 2328.95 573.487C2323.75 483.786 2368.5 414.625 2461.74 408.597Z"/><path fill="#010101" d="M1175.91 422.336C1211.66 421.331 1248.16 422.839 1284.07 422.274C1294.92 423.589 1366.46 418.651 1368.13 426.688C1378.41 476.189 1300.86 429.554 1319.56 497.45C1326.82 523.805 1336.58 555.47 1344.67 581.485L1377.46 690.566L1398.23 759.825C1400.95 769.044 1404.5 793.934 1414.69 796.953C1420.09 794.819 1419.71 789.551 1421.56 784.401C1425 774.777 1427.82 764.799 1430.84 755.015C1449.29 695.33 1466.77 635.351 1483.28 575.102C1490.18 550.098 1506.19 502.344 1506.72 475.996C1507.15 454.982 1468.11 454.946 1456.49 446.984C1451.13 443.308 1449.78 431.398 1454.04 426.38C1463.31 421.236 1481.74 421.867 1493.14 422.152C1529.73 423.068 1567.71 420.073 1604.04 423.969C1615.81 425.231 1611.96 439.899 1610.16 448.185C1600.13 451.163 1588.85 454.147 1579.61 458.85C1567.13 466.801 1557.84 479.974 1552.39 493.506C1535.7 534.95 1523.23 581.344 1510.53 623.848L1449.21 824.324L1423.19 907.792C1419.23 920.927 1413.72 950.323 1404.87 961.606C1402 965.262 1385.26 963.484 1379.74 963.123C1369.23 949.568 1355.15 896.177 1348.97 877.118L1267.01 621.083C1254.32 580.598 1242.97 540.235 1228.85 500.078C1214.27 458.58 1208.87 461.74 1171.39 448.713C1167.94 438.462 1163.9 428.434 1175.91 422.336Z"/><path fill="#010101" d="M2037.3 514.71C2035.29 507.934 2030.66 502.242 2024.43 498.897C2011.94 492.23 1988.85 494.453 1983.23 482.092C1978.6 471.908 1994.01 464.45 2001.3 461.985C2036.26 450.161 2068.93 438.137 2098.38 415.099C2103.81 410.851 2111.29 407.897 2117.8 412.144C2123.37 427.193 2115.92 489.158 2123 496.429C2125.6 497.467 2125.72 497.591 2128.36 497.015C2135.36 491.543 2148.88 467.905 2154.43 459.31C2183.4 414.397 2246.57 383.766 2286.66 434.897C2304.57 458.6 2299.62 502.106 2275.42 519.714C2256.67 533.355 2228.64 531.904 2216.74 510.61C2205.91 491.237 2192.26 479.313 2171.54 496.548C2139.37 523.306 2131.65 571.954 2126.04 610.974C2124.17 625.568 2124.57 648.13 2124.57 663.095L2124.67 733.807L2125.01 820.134C2125.2 843.041 2123.23 886.587 2135.08 908.086C2139.9 916.826 2163.51 923.071 2172.97 923.93C2187.06 925.169 2210.32 929.222 2197.96 950.938C2195.43 955.381 2155.29 953.867 2145.15 953.871L2057.76 953.868L2011.46 953.896C2009.12 953.897 1998.04 953.568 1996.23 953.934C1978.21 957.588 1978.27 932.045 1989.34 927.183C2003.16 921.119 2023.58 923.656 2032.57 907.505C2034.79 903.723 2036.38 903.018 2037.59 898.302C2044.39 881.041 2041.8 829.917 2041.73 808.504L2041.87 710.418L2042.05 598.852C2042.02 576.43 2043.99 534.841 2037.3 514.71Z"/><path fill="#010101" d="M199.707 925.653C223.285 923.522 258.386 916.359 265.563 890.887C278.91 843.508 274.212 784.944 274.042 736.067L274.478 646.484C274.448 639.266 273.274 606.384 274.728 602.034C282.342 603.4 348.278 647.849 359.963 655.031C360.885 698.64 359.691 742.564 359.874 786.112C360.001 816.244 358.911 855.195 364.318 884.509C364.323 884.953 364.301 885.319 364.437 885.929C369.668 913.325 393.426 917.622 416.883 922.029C424.133 923.392 434.228 924.341 435.267 933.211C438.434 960.267 423.362 953.971 405.293 953.797L355.133 953.735L199.935 953.756C200.134 943.896 200.108 935.5 199.707 925.653Z"/><path fill="#FDFDFC" fill-opacity="0.011764706" d="M2037.59 898.302C2035.76 892.271 2036.75 852.765 2036.78 844.536L2037.81 617.868C2037.58 595.14 2037.21 572.414 2036.69 549.69C2036.58 542.215 2035.95 521.25 2037.3 514.71C2043.99 534.841 2042.02 576.43 2042.05 598.852L2041.87 710.418L2041.73 808.504C2041.8 829.917 2044.39 881.041 2037.59 898.302Z"/><path fill="#FDFDFC" fill-opacity="0.011764706" d="M359.51 219.776L446.095 219.709C466.442 219.707 488.601 219.049 508.629 221.378C505.233 222.39 503.067 222.5 499.56 222.447C456.356 221.795 413.112 222.17 369.908 222.141C367.237 222.139 366.197 222.67 364.193 224.252C363.553 226.329 364.676 259.941 364.672 264.749C364.602 353.081 364.478 441.22 362.577 529.526C362.554 530.577 361.601 532.133 361.01 532.973L360.183 533.211C358.786 527.622 359.551 504.203 359.557 497.257L359.508 417.528L359.51 219.776Z"/><path fill="#FDFDFC" fill-opacity="0.015686275" d="M359.963 655.031L362.983 654.965C366.93 660.298 364.864 687.125 364.872 695.646L364.481 802.236C364.508 814.11 367.383 876.549 364.318 884.509C358.911 855.195 360.001 816.244 359.874 786.112C359.691 742.564 360.885 698.64 359.963 655.031Z"/><path fill="#FDFDFC" fill-opacity="0.011764706" d="M3046.44 654.716C3046.72 651.805 3046.21 651.632 3047.78 650.002C3049.21 655.639 3053.13 667.262 3052.94 672.386C3052.51 684.631 3052.78 702.325 3050.08 714.322L3048.76 714.567C3047.07 711.529 3047.36 710.243 3047.51 706.799C3047.89 688.313 3048.17 673.241 3046.44 654.716Z"/></svg>